<svg width="38" height="38" viewBox="0 0 38 38" fill="none" xmlns="http://www.w3.org/2000/svg">
<path d="M19 3.75C27.2617 3.75 34 10.4883 34 18.75C34 27.0703 27.2617 33.75 19 33.75C10.6797 33.75 4 27.0703 4 18.75C4 10.4883 10.6797 3.75 19 3.75ZM19 30.9375C25.6797 30.9375 31.1875 25.4883 31.1875 18.75C31.1875 12.0703 25.6797 6.5625 19 6.5625C12.2617 6.5625 6.8125 12.0703 6.8125 18.75C6.8125 25.4883 12.2617 30.9375 19 30.9375ZM19 23.4375C19.9961 23.4375 20.875 24.2578 20.875 25.3125C20.875 26.3672 19.9961 27.1875 19 27.1875C17.8867 27.1875 17.125 26.3672 17.125 25.3125C17.125 24.2578 17.9453 23.4375 19 23.4375ZM20.9336 11.25C23.2773 11.25 25.0938 13.0664 25.0352 15.3516C25.0352 16.7578 24.2734 18.1055 23.043 18.8672L20.4062 20.5078V20.625C20.4062 21.3867 19.7617 22.0312 19 22.0312C18.2383 22.0312 17.5938 21.3867 17.5938 20.625V19.6875C17.5938 19.2188 17.8281 18.75 18.2969 18.457L21.6367 16.4648C22.0469 16.2305 22.2812 15.8203 22.2812 15.3516C22.2812 14.6484 21.6367 14.0625 20.875 14.0625H17.8867C17.1836 14.0625 16.6562 14.6484 16.6562 15.3516C16.6562 16.1133 16.0117 16.7578 15.25 16.7578C14.4883 16.7578 13.8438 16.1133 13.8438 15.3516C13.8438 13.0664 15.6602 11.25 17.9453 11.25H20.9336Z" fill="#649BE9"/>
</svg>
